<?xml version="1.0" encoding="UTF-8" standalone="no"?>
<!-- Created with Inkscape (http://www.inkscape.org/) -->

<svg
   width="153.39975mm"
   height="618.34509mm"
   viewBox="0 0 153.39975 618.3451"
   version="1.1"
   id="svg1782"
   inkscape:version="1.1.2 (0a00cf5339, 2022-02-04)"
   sodipodi:docname="comics.svg"
   xmlns:inkscape="http://www.inkscape.org/namespaces/inkscape"
   xmlns:sodipodi="http://sodipodi.sourceforge.net/DTD/sodipodi-0.dtd"
   xmlns="http://www.w3.org/2000/svg"
   xmlns:svg="http://www.w3.org/2000/svg">
  <sodipodi:namedview
     id="namedview1784"
     pagecolor="#ffffff"
     bordercolor="#666666"
     borderopacity="1.0"
     inkscape:pageshadow="2"
     inkscape:pageopacity="0.0"
     inkscape:pagecheckerboard="false"
     inkscape:document-units="mm"
     showgrid="false"
     inkscape:zoom="0.74208053"
     inkscape:cx="243.23506"
     inkscape:cy="1001.239"
     inkscape:window-width="1920"
     inkscape:window-height="1011"
     inkscape:window-x="0"
     inkscape:window-y="32"
     inkscape:window-maximized="1"
     inkscape:current-layer="layer1"
     fit-margin-top="0"
     fit-margin-left="0"
     fit-margin-right="0"
     fit-margin-bottom="0"
     objecttolerance="6.7" />
  <defs
     id="defs1779" />
  <g
     inkscape:label="Layer 1"
     inkscape:groupmode="layer"
     id="layer1"
     transform="translate(-40.3356,-7.5322306)">
    <path
       style="fill:none;stroke:#000000;stroke-width:0.264583px;stroke-linecap:butt;stroke-linejoin:miter;stroke-opacity:1"
       d="m 70.63437,46.155938 c -1.214835,-0.513385 -2.376827,-1.176304 -3.644498,-1.540148 -1.900539,-0.545491 -3.94901,-0.26607 -5.926259,-0.256701 -6.348325,0.03008 -10.353403,3.44992 -13.405385,8.84161 -1.359498,2.401715 -2.152136,3.62019 -2.630371,6.189117 -1.760328,9.455941 5.03101,20.34204 13.658919,24.043452 3.624421,1.554893 8.027871,1.237329 11.75744,0.342254 3.440645,-0.825732 6.923413,-2.379948 9.53906,-4.820091 9.133652,-8.520809 8.21618,-21.557321 -0.792297,-29.605115 -2.666524,-2.382161 -5.153875,-4.907148 -8.936916,-5.190869 -2.917407,-0.2188 -5.491443,0.690923 -8.112945,1.796836"
       id="path1876" />
    <path
       style="fill:none;stroke:#000000;stroke-width:0.264583px;stroke-linecap:butt;stroke-linejoin:miter;stroke-opacity:1"
       d="m 74.183779,57.279243 c -1.170752,-3.224861 -2.700526,-3.652512 -5.704422,-1.454592 -3.590216,2.626926 0.259106,8.898329 4.214924,8.128569 1.137734,-0.22139 2.051796,-1.088649 3.01068,-1.7398 3.904292,-2.651283 -0.237522,-10.29154 -4.563547,-8.128568"
       id="path1878" />
    <path
       style="fill:none;stroke:#000000;stroke-width:0.264583px;stroke-linecap:butt;stroke-linejoin:miter;stroke-opacity:1"
       d="m 66.704654,70.969464 c 3.415313,5.443548 8.926015,5.947932 14.641335,5.304954"
       id="path1880" />
    <path
       style="fill:none;stroke:#000000;stroke-width:0.264583px;stroke-linecap:butt;stroke-linejoin:miter;stroke-opacity:1"
       d="m 109.64623,36.25905 c -5.17696,0.332764 -13.614364,6.605352 -18.063981,9.440545 0.950737,0.190142 1.89229,0.43402 2.852211,0.570427 2.634737,0.374402 5.311715,0.28472 7.95449,0.655983 2.28391,0.32085 3.70791,0.70163 5.92626,1.140854 0.009,0.0018 5.3323,1.011047 4.37339,0.627475 2.15707,5.559609 3.06073,11.684591 5.83118,16.998687 4.44726,8.530445 14.59392,14.324982 24.08532,14.659953 4.72688,0.166822 9.26309,-1.316061 13.53215,-3.19439 3.58751,-1.578459 7.50736,-3.113333 10.80669,-5.304964 8.19631,-5.444521 14.02339,-15.3645 14.98994,-25.098738 0.70227,-7.072657 -1.97389,-18.7516 -5.57764,-24.956133 -1.97761,-3.40483 -5.13951,-6.927285 -8.39818,-9.126819 -8.75739,-5.9110384 -25.24221,-6.6043543 -34.82863,-1.996488 -8.29786,3.988499 -13.47716,9.240209 -18.57105,16.741998 -0.75268,1.108478 -1.67857,2.370855 -2.28177,3.565165 -0.99922,1.978405 -1.16513,3.507479 -2.63038,5.276445 z"
       id="path1882" />
    <path
       style="fill:none;stroke:#000000;stroke-width:0.264583px;stroke-linecap:butt;stroke-linejoin:miter;stroke-opacity:1"
       d="m 169.51092,28.67238 c 0.41824,3.806414 0.57099,7.67118 1.10921,11.465562 0.06,0.422754 0.53873,2.413693 0.53873,2.823604"
       id="path1896" />
    <path
       style="fill:none;stroke:#000000;stroke-width:0.264583px;stroke-linecap:butt;stroke-linejoin:miter;stroke-opacity:1"
       d="m 172.93359,53.001047 c -2.23872,-0.63296 -3.39344,1.554771 0,0 z"
       id="path1898" />
    <path
       style="fill:none;stroke:#000000;stroke-width:0.264583px;stroke-linecap:butt;stroke-linejoin:miter;stroke-opacity:1"
       d="m 65.912367,173.56057 c -11.808569,-6.58428 -22.003515,3.60689 -24.592378,14.91664 -0.629176,2.74863 -1.375764,6.9899 -0.316915,9.72575 3.40732,8.80382 19.487224,14.56011 28.236875,12.34973 3.583578,-0.9053 6.188427,-2.63571 9.158753,-4.73453 6.973642,-4.92753 12.563163,-10.65029 8.398164,-19.85083 -0.988812,-2.1843 -2.662174,-5.01985 -4.690285,-6.38878 -1.62833,-1.09909 -3.307755,-1.72989 -4.880462,-2.93769 -1.885185,-1.44778 -6.163373,-3.77696 -8.588314,-3.67924 -0.929404,0.0375 -1.821439,0.81799 -2.725438,0.59895 -3.392358,-0.82197 -0.529781,-2.26703 -5.641031,-1.9965"
       id="path1900" />
    <path
       style="fill:none;stroke:#000000;stroke-width:0.264583px;stroke-linecap:butt;stroke-linejoin:miter;stroke-opacity:1"
       d="m 60.176261,182.48773 c -0.981638,-1.70826 -3.338465,-2.50582 -5.038907,-1.25493 -0.903259,0.66446 -1.842501,1.35367 -2.471915,2.28169 -2.235912,3.29668 2.501532,7.97973 5.704422,7.70077 3.083398,-0.26856 6.061297,-3.71559 4.78537,-6.78809 -0.216892,-0.52229 -0.350022,-1.17454 -0.82397,-1.4831 -0.615345,-0.40061 -1.436667,-0.30422 -2.155,-0.45634 z"
       id="path1902" />
    <path
       style="fill:none;stroke:#000000;stroke-width:0.264583px;stroke-linecap:butt;stroke-linejoin:miter;stroke-opacity:1"
       d="m 74.247149,182.17399 c -1.805506,-1.80365 -4.891148,-0.66347 -5.767792,1.5972 -0.482343,1.24385 -0.400651,2.81044 0.285231,3.96447 0.5407,0.90976 1.428277,2.46677 2.63035,2.93769 2.368677,0.92794 6.693961,0.54661 8.14464,-1.91093 1.124728,-1.90537 -2.076903,-8.82303 -3.707855,-7.90041 -0.596863,0.33763 -1.056383,0.87465 -1.584574,1.31198 z"
       id="path1904" />
    <path
       style="fill:none;stroke:#000000;stroke-width:0.264583px;stroke-linecap:butt;stroke-linejoin:miter;stroke-opacity:1"
       d="m 58.71846,199.08714 c 2.01753,6.38904 7.036792,11.66529 10.426411,1.34049"
       id="path1906" />
    <ellipse
       style="fill:#000000;stroke-width:0.0478572"
       id="eye"
       cx="58.132183"
       cy="185.95718"
       rx="2.3609858"
       ry="2.3815176" />
    <ellipse
       style="fill:#000000;stroke-width:0.0478572"
       id="eye2"
       cx="73.456718"
       cy="186.55707"
       rx="2.3609858"
       ry="2.3815176" />
    <g
       id="bird"
       onmousemove=""
       onload="">
      <path
         style="fill:none;stroke:#000000;stroke-width:0.264583px;stroke-linecap:butt;stroke-linejoin:miter;stroke-opacity:1"
         d="m 145.04532,164.92274 c -0.15846,-2.24368 -0.4666,-4.48178 -0.47536,-6.73103 -0.009,-2.39158 2.33938,-4.23324 3.99308,-5.96095 2.3167,-2.42038 7.68549,-6.86726 11.53561,-5.70426 1.98989,0.60108 3.7774,1.84176 5.35582,3.19438 3.49845,2.998 4.20076,8.05228 4.75367,12.26415 0.21087,1.60633 0.97373,3.27787 -0.91906,2.82362"
         id="path2133" />
      <path
         style="fill:none;stroke:#000000;stroke-width:0.264583px;stroke-linecap:butt;stroke-linejoin:miter;stroke-opacity:1"
         d="m 161.52475,162.49843 c -0.0898,-0.63785 0.0294,-3.35517 -1.74302,-3.05179 -2.14452,0.36707 -7.08546,4.03455 -3.54941,6.78807 2.72506,2.122 9.24033,-1.22954 8.14464,-3.53664 -0.42174,-0.88801 -1.37329,-1.40705 -2.05993,-2.11057"
         id="path2135" />
      <path
         style="fill:none;stroke:#000000;stroke-width:0.264583px;stroke-linecap:butt;stroke-linejoin:miter;stroke-opacity:1"
         d="m 145.04532,164.92274 c -6.19018,4.57996 -12.68264,8.56652 -19.52178,12.09303 -1.0369,0.53466 -12.05796,5.58714 -12.10606,5.84685 -0.0673,0.36341 7.74382,-0.0998 8.77847,-0.11408 6.8159,-0.0938 13.59892,0.20577 20.40915,0.37078 2.78585,0.0675 6.6788,-0.5518 9.41227,0.37078 0.20743,0.07 -0.006,0.44031 0.0317,0.65598 0.12944,0.74255 0.31568,1.47615 0.53875,2.19614 0.60808,1.96259 1.02588,2.7238 2.40854,4.62045 4.30142,5.90042 11.02554,8.6987 18.12735,9.64021 3.87517,0.51374 9.57515,0.50332 13.31031,0.62747 1.83033,0.0608 3.94581,0.11304 5.7995,0.42781 0.4494,0.0763 1.21573,0.75475 1.33103,0.31374 0.1266,-0.48426 -0.0628,-0.58097 -0.31692,-0.96972"
         id="path2137" />
      <path
         style="fill:none;stroke:#000000;stroke-width:0.264583px;stroke-linecap:butt;stroke-linejoin:miter;stroke-opacity:1"
         d="m 119.34374,181.72177 c 7.71287,-0.0475 15.46536,-2.8144 23.16628,-3.90741 0.69055,-0.098 2.78136,0.16052 2.09162,0.057"
         id="path2139" />
    </g>
    <path
       style="fill:none;stroke:#000000;stroke-width:0.264583px;stroke-linecap:butt;stroke-linejoin:miter;stroke-opacity:1"
       d="m 87.39901,287.87804 c -1.001361,-3.92848 -2.220646,-7.80846 -1.616258,-11.92189 1.385671,-9.43078 14.505208,-17.71891 23.705038,-15.43002 7.1878,1.7883 11.34203,6.43292 14.60965,12.83457 1.32204,2.59006 1.5405,5.85528 3.32757,8.21412 0.40113,0.52948 -0.8446,-1.03071 -1.33103,-1.4831"
       id="path2141" />
    <path
       style="fill:none;stroke:#000000;stroke-width:0.264583px;stroke-linecap:butt;stroke-linejoin:miter;stroke-opacity:1"
       d="m 112.02308,279.26461 c -2.04815,-1.47463 -4.37699,-4.8328 -7.35236,-2.79509 -4.39388,3.00919 -5.777485,6.79469 -1.4895,10.58141 0.63723,0.56274 1.59352,0.81774 2.44024,0.74154 1.88314,-0.16946 3.84251,-0.51376 5.48256,-1.4546 3.29378,-1.88946 4.88054,-6.70951 2.88392,-9.89687 -0.75764,-1.20949 -2.53488,-1.65364 -3.70788,-2.11058"
       id="path2143" />
    <path
       style="fill:none;stroke:#000000;stroke-width:0.264583px;stroke-linecap:butt;stroke-linejoin:miter;stroke-opacity:1"
       d="m 87.39901,287.87804 c -9.487302,7.62254 -21.073107,11.83341 -31.913044,17.1413 -2.39893,1.17464 -4.751483,2.44348 -7.162223,3.5937 -1.794746,0.8563 -3.639032,1.6048 -5.450888,2.4243 -0.319722,0.14462 -1.239043,0.36938 -0.919046,0.51337 1.723202,0.77544 15.47668,-0.1125 15.687156,-0.11409 8.584671,-0.0644 17.399551,0.0726 25.955091,0.85564 1.166087,0.10673 6.700477,0.76811 8.778467,1.1979 1.171271,0.24225 2.950803,0.81759 2.978973,0.74157 0.111942,-0.3021 -1.682671,-0.50631 -1.74302,-0.5134"
       id="path2145" />
    <path
       style="fill:none;stroke:#000000;stroke-width:0.264583px;stroke-linecap:butt;stroke-linejoin:miter;stroke-opacity:1"
       d="m 45.851828,306.93026 c 11.968022,1.2459 23.963627,-2.15424 35.747684,-3.8789 2.08085,-0.30453 4.217472,-1.09169 6.274859,-0.65598 0.347919,0.0737 -0.612066,0.36235 -0.919038,0.5419"
       id="path2147" />
    <path
       style="fill:none;stroke:#000000;stroke-width:0.264583px;stroke-linecap:butt;stroke-linejoin:miter;stroke-opacity:1"
       d="m 93.610474,313.71833 c 4.856215,4.78822 4.023537,3.01141 6.560086,8.92718 0.82954,1.93463 0.83657,1.52707 0.60215,2.65247"
       id="path2149" />
    <path
       style="fill:none;stroke:#000000;stroke-width:0.264583px;stroke-linecap:butt;stroke-linejoin:miter;stroke-opacity:1"
       d="m 126.09398,280.09172 c 13.75228,5.09262 27.38892,-4.37367 41.29364,0.14261 5.67924,1.84463 7.44155,2.65139 11.8842,5.44756 0.91525,0.57605 2.09861,2.80662 3.07405,2.96622 0.38525,0.0631 -0.25409,-0.74255 -0.44368,-1.08381"
       id="path2151" />
    <path
       style="fill:none;stroke:#000000;stroke-width:0.264583px;stroke-linecap:butt;stroke-linejoin:miter;stroke-opacity:1"
       d="m 125.0865,31.88054 c -0.21849,4.19788 -0.80483,8.369973 -1.61624,12.492332 -0.25183,1.279419 -1.08444,5.048075 -0.50706,3.878902"
       id="path2602" />
    <path
       style="fill:none;stroke:#000000;stroke-width:0.264583px;stroke-linecap:butt;stroke-linejoin:miter;stroke-opacity:1"
       d="m 131.67827,33.392168 c -0.23239,0.846133 -0.50772,1.681629 -0.69719,2.538397 -0.65422,2.958293 -0.93517,5.976819 -1.45779,8.955696 -0.23539,1.341678 -0.49519,2.292395 -0.53876,2.253176 -0.0992,-0.08932 -0.0153,-0.266782 -0.0317,-0.399293"
       id="path2610" />
    <path
       style="fill:none;stroke:#000000;stroke-width:0.264583px;stroke-linecap:butt;stroke-linejoin:miter;stroke-opacity:1"
       d="m 123.97731,39.952071 c 0.58101,0.123592 1.1624,0.245366 1.74302,0.370776 0.26788,0.05786 5.83118,1.080331 5.83118,0.541906 0,-0.225073 -0.51028,-0.0489 -0.66551,0.114086"
       id="path2616" />
    <path
       style="fill:none;stroke:#000000;stroke-width:0.264583px;stroke-linecap:butt;stroke-linejoin:miter;stroke-opacity:1"
       d="m 139.34755,46.797183 c -1.12544,0.270102 -1.87827,0.782243 -3.10573,0.655992 -4.59219,-0.472327 -2.36894,-8.756026 1.80639,-6.502855 1.95229,3.762089 -4.37676,1.18418 -3.51772,3.194381"
       id="path2618" />
    <path
       style="fill:none;stroke:#000000;stroke-width:0.264583px;stroke-linecap:butt;stroke-linejoin:miter;stroke-opacity:1"
       d="m 142.99204,34.504503 c -0.44709,8.81556 -0.3494,4.183433 -0.31691,10.353228 0.005,1.026972 0.0634,2.05332 0.0634,3.080306 0,0.190434 -0.0508,-0.380958 -0.0317,-0.570429"
       id="path2620" />
    <path
       style="fill:none;stroke:#000000;stroke-width:0.264583px;stroke-linecap:butt;stroke-linejoin:miter;stroke-opacity:1"
       d="m 146.85836,33.648868 c -0.0105,1.102822 -0.004,2.205952 -0.0317,3.308466 -0.0839,3.28558 -0.45546,6.260817 -1.07751,9.469075 -1.29384,6.673122 0.20256,-1.427443 -0.53875,2.90917 -0.0282,0.164664 -0.0905,0.64793 -0.12676,0.48486 -0.0614,-0.27627 0.15381,-0.663231 0.22184,-0.855634"
       id="path2622" />
    <path
       style="fill:none;stroke:#000000;stroke-width:0.264583px;stroke-linecap:butt;stroke-linejoin:miter;stroke-opacity:1"
       d="m 153.92552,42.518987 c -0.0202,-0.819108 -0.34597,-2.383904 -1.58457,-2.224659 -2.36759,0.304395 -5.49697,4.502779 -2.63038,6.360249 1.60812,1.042012 5.02684,-0.746146 4.84876,-2.738048 -0.0455,-0.509484 -0.42254,-0.931696 -0.63381,-1.397542 z"
       id="path2624" />
    <rect
       style="fill:#ff0000;stroke-width:0.529167"
       id="slow"
       width="13.081444"
       height="70.579544"
       x="201.89523"
       y="143.79895" />
    <rect
       style="fill:#ff0000;stroke-width:0.608654"
       id="visible_bird_"
       width="13.081444"
       height="93.3759"
       x="219.40024"
       y="177.57695"
       onload="visible(&quot;bird&quot;)" />
    <rect
       style="fill:none;stroke-width:0.529167"
       id="rect967"
       width="99.122002"
       height="24.444103"
       x="58.932743"
       y="601.43323" />
    <path
       style="fill:none;stroke:#000000;stroke-width:0.264583px;stroke-linecap:butt;stroke-linejoin:miter;stroke-opacity:1"
       d="m 69.284189,451.92764 c 8.635198,5.5971 17.851339,10.2508 26.73532,15.42679 10.243921,5.96829 20.098561,12.62086 30.572921,18.17481 2.85817,1.51554 5.89296,2.6715 8.84105,4.00365 3.13707,1.41756 7.75035,3.37984 11.03152,5.15231 2.32896,1.25807 5.84063,4.39171 8.78297,4.39171"
       id="path1038" />
    <rect
       style="fill:#ff0000;stroke-width:0.424075"
       id="visible_bird_-6"
       width="13.081444"
       height="45.329323"
       x="239.60117"
       y="177.69595"
       onload="execute(() =&gt; {eye.style.transform = `translate(${t * 10}px, 0px)`; eye2.style.transform = `translate(${t * 10}px, 0px)`})" />
  </g>
</svg>
