<?xml version="1.0" encoding="UTF-8" standalone="no"?>
<!-- Created with Inkscape (http://www.inkscape.org/) -->

<svg
   width="337.59232mm"
   height="1105.7506mm"
   viewBox="0 0 337.59232 1105.7506"
   version="1.1"
   id="svg1782"
   inkscape:version="1.1.2 (0a00cf5339, 2022-02-04)"
   sodipodi:docname="le_corbeau_et_le_renard.svg"
   xmlns:inkscape="http://www.inkscape.org/namespaces/inkscape"
   xmlns:sodipodi="http://sodipodi.sourceforge.net/DTD/sodipodi-0.dtd"
   xmlns="http://www.w3.org/2000/svg"
   xmlns:svg="http://www.w3.org/2000/svg">
  <sodipodi:namedview
     id="namedview1784"
     pagecolor="#ffffff"
     bordercolor="#666666"
     borderopacity="1.0"
     inkscape:pageshadow="2"
     inkscape:pageopacity="0.0"
     inkscape:pagecheckerboard="false"
     inkscape:document-units="mm"
     showgrid="false"
     inkscape:zoom="0.45587317"
     inkscape:cx="178.77779"
     inkscape:cy="3035.9321"
     inkscape:window-width="1920"
     inkscape:window-height="1011"
     inkscape:window-x="0"
     inkscape:window-y="32"
     inkscape:window-maximized="1"
     inkscape:current-layer="layer1"
     fit-margin-top="0"
     fit-margin-left="-64"
     fit-margin-right="0"
     fit-margin-bottom="0"
     objecttolerance="6.7" />
  <defs
     id="defs1779">
    <rect
       x="717.26184"
       y="1193.239"
       width="419.55508"
       height="115.34347"
       id="rect45532" />
  </defs>
  <g
     inkscape:label="Layer 1"
     inkscape:groupmode="layer"
     id="layer1"
     transform="translate(-29.722599,-19.748974)">
    <text
       xml:space="preserve"
       style="font-style:normal;font-weight:normal;font-size:10.5833px;line-height:1.25;font-family:sans-serif;fill:#000000;fill-opacity:1;stroke:none;stroke-width:0.264583"
       x="43.168934"
       y="28.213547"
       id="text5938"><tspan
         sodipodi:role="line"
         id="tspan5936"
         style="stroke-width:0.264583"
         x="43.168934"
         y="28.213547">Maître corbeau, sur un arbre perché,</tspan><tspan
         sodipodi:role="line"
         style="stroke-width:0.264583"
         x="43.168934"
         y="41.442673"
         id="tspan5940">Tenait en son bec un fromage.</tspan></text>
    <g
       id="corbeau0">
      <path
         style="fill:none;stroke:#000000;stroke-width:0.264583px;stroke-linecap:butt;stroke-linejoin:miter;stroke-opacity:1"
         d="m 224.7063,99.929134 c 7.71423,-3.67814 16.17143,-5.57526 24.08974,-8.81325 2.17095,-0.887754 4.30848,-1.855293 6.45381,-2.803289 0.76234,-0.336865 3.56995,-1.917647 2.64427,-0.705869"
         id="path7562" />
      <path
         style="fill:none;stroke:#000000;stroke-width:0.264583px;stroke-linecap:butt;stroke-linejoin:miter;stroke-opacity:1"
         d="m 227.30575,100.5745 c 3.54063,0.0269 7.08165,0.022 10.6219,0.0807 5.25885,0.0872 11.8522,0.44129 17.25497,0.24202 2.1633,-0.0798 4.31732,-0.32495 6.47623,-0.48402 0.39574,-0.0292 0.79224,-0.0478 1.18768,-0.0807 0.0903,-0.008 0.23209,-0.12315 0.2689,-0.0403 0.0359,0.0807 -0.14938,0.0941 -0.22408,0.14116"
         id="path7564" />
      <path
         style="fill:none;stroke:#000000;stroke-width:0.264583px;stroke-linecap:butt;stroke-linejoin:miter;stroke-opacity:1"
         d="m 257.89412,87.606726 c 0.2465,-0.934429 0.49301,-1.868858 0.73951,-2.803287 0.16433,-1.929368 0.0214,-3.910065 0.49299,-5.788104 2.18221,-8.689599 4.26353,-16.082367 14.78999,-14.924027 3.58015,0.393962 6.52768,6.519212 7.41741,8.430051 0.58773,1.262258 0.57853,2.724386 0.82912,4.094033 0.12039,0.657992 0.0873,1.337524 0.20169,1.99658 0.0142,0.08162 0.14684,0.297027 0.11204,0.221848 -0.25118,-0.542555 -0.17648,-0.388887 -0.493,-0.88737"
         id="path7566" />
      <path
         style="fill:none;stroke:#000000;stroke-width:0.264583px;stroke-linecap:butt;stroke-linejoin:miter;stroke-opacity:1"
         d="m 274.27516,76.897726 c -0.66481,-1.048713 -0.7869,-2.85687 -1.99442,-3.146142 -5.02013,-1.202631 -7.15614,7.130828 -3.67508,7.744354 5.01967,0.884704 7.77845,-5.89067 4.50422,-7.704015"
         id="path7568" />
      <path
         style="fill:none;stroke:#000000;stroke-width:0.264583px;stroke-linecap:butt;stroke-linejoin:miter;stroke-opacity:1"
         d="m 283.35084,79.07584 c 2.63281,0.707755 5.01986,1.103156 7.28293,2.843617 6.24527,4.803045 8.50859,10.93479 10.03926,18.413023 0.14966,0.73114 1.27778,4.71091 0.62746,3.67051"
         id="path7570" />
      <path
         style="fill:none;stroke:#000000;stroke-width:0.264583px;stroke-linecap:butt;stroke-linejoin:miter;stroke-opacity:1"
         d="m 262.89135,100.43336 c 0.49524,5.69455 -1.95856,12.165 1.63587,17.4046 0.60775,0.88593 1.41606,1.61803 2.17368,2.37977 0.22292,0.22414 0.91541,0.28836 0.76189,0.5647 -0.0857,0.15426 -0.29039,0.20729 -0.40336,0.34284"
         id="path7572" />
      <path
         style="fill:none;stroke:#000000;stroke-width:0.264583px;stroke-linecap:butt;stroke-linejoin:miter;stroke-opacity:1"
         d="m 243.261,126.22768 c 11.15533,0.2485 -1.59917,-0.1395 20.41467,1.55291 5.71642,0.43947 11.45316,0.59753 17.16534,1.08905 19.37002,1.66678 27.93258,2.89583 47.46242,6.05027 3.32577,0.53718 6.64627,1.13115 9.92722,1.89576 1.98473,0.46254 0.67026,0.59188 0.44818,0.62519"
         id="path7574" />
      <path
         style="fill:none;stroke:#000000;stroke-width:0.264583px;stroke-linecap:butt;stroke-linejoin:miter;stroke-opacity:1"
         d="m 244.96409,116.5069 c 4.92699,1.58798 9.67872,1.87238 14.8124,2.01676 0.86349,0.0243 4.09741,-0.25406 4.30254,0.16134"
         id="path7576" />
      <path
         style="fill:none;stroke:#000000;stroke-width:0.264583px;stroke-linecap:butt;stroke-linejoin:miter;stroke-opacity:1"
         d="m 302.91394,122.83952 c 0.60505,-0.29579 1.14269,-0.85035 1.81515,-0.88737 1.84182,-0.10138 3.6781,0.29137 5.51262,0.48403 4.1192,0.43258 8.23273,0.91772 12.3474,1.39156 9.43886,1.08696 7.69539,0.67346 17.03091,2.86379 0.36427,0.0855 9.8472,2.90824 7.68629,1.27057"
         id="path7578" />
      <path
         style="fill:none;stroke:#000000;stroke-width:0.264583px;stroke-linecap:butt;stroke-linejoin:miter;stroke-opacity:1"
         d="m 294.33128,104.52735 c 1.34454,-0.77982 2.61487,-1.70461 4.03363,-2.33946 2.58957,-1.15874 5.26687,-2.11885 7.95521,-3.025126 1.78346,-0.60123 3.58478,-1.20912 5.44541,-1.4924 0.25689,-0.0391 0.66785,0.37442 0.51541,0.58486 -3.3545,4.630786 -9.51729,6.356926 -13.10931,10.688816 -0.56259,0.67847 1.7349,0.65546 2.59945,0.48403 1.98203,-0.39304 3.87292,-1.17023 5.84877,-1.59324 0.62433,-0.13366 1.88296,-0.43642 1.90477,0.20167 0.0643,1.88006 -5.4982,5.90462 -7.03644,7.099 -0.3617,0.28083 0.88376,-0.12232 1.00841,0.0403 0.40556,0.52925 -0.53522,1.26821 -1.03083,1.71425 -2.35512,2.11955 -4.89445,4.06171 -8.04485,4.55786"
         id="path7580" />
      <g
         id="aa"
         transform="translate(85.296236,-6.7978159)">
        <path
           style="fill:none;stroke:#000000;stroke-width:0.264583px;stroke-linecap:butt;stroke-linejoin:miter;stroke-opacity:1"
           d="m 160.04881,104.22616 c -4.63672,-0.84193 -9.2801,1.23744 -12.70594,4.33603 -3.52221,3.18577 -1.3102,7.98297 3.07004,8.20823 4.55036,0.234 8.74552,-1.59449 12.23534,-4.39655 1.5931,-1.27913 4.60556,-4.59164 2.39778,-6.73597 -1.86447,-1.81088 -9.0571,-2.04296 -10.86841,-0.14117"
           id="path7582" />
        <path
           style="fill:none;stroke:#000000;stroke-width:0.264583px;stroke-linecap:butt;stroke-linejoin:miter;stroke-opacity:1"
           d="m 146.49133,114.79399 c 0.5582,1.81459 1.32379,3.89374 2.77871,5.20325"
           id="path7584" />
        <path
           style="fill:none;stroke:#000000;stroke-width:0.264583px;stroke-linecap:butt;stroke-linejoin:miter;stroke-opacity:1"
           d="m 149.27004,119.99724 c 2.35337,1.14723 1.68342,1.19332 4.14569,1.08904 3.69197,-0.15636 7.28527,-1.17714 10.21853,-3.44865 0.97085,-0.75183 2.83486,-2.20857 3.54064,-3.26716 0.29566,-0.44346 1.09572,-2.00242 -0.0224,-1.27055"
           id="path7586" />
        <path
           style="fill:none;stroke:#000000;stroke-width:0.264583px;stroke-linecap:butt;stroke-linejoin:miter;stroke-opacity:1"
           d="m 165.80794,108.50171 c 0.94957,1.28575 1.45819,2.78656 2.12885,4.21502 0.12047,0.25658 0.5441,0.87469 0.26892,0.80671 -0.36735,-0.0908 -0.70214,-0.28235 -1.05321,-0.42352"
           id="path7588" />
      </g>
    </g>
    <path
       style="fill:none;stroke:#000000;stroke-width:0.264583px;stroke-linecap:butt;stroke-linejoin:miter;stroke-opacity:1"
       d="m 133.92341,386.6203 c 7.71423,-3.67814 16.17143,-5.57526 24.08974,-8.81325 2.17095,-0.88775 4.30848,-1.85529 6.45381,-2.80329 0.76234,-0.33686 3.56995,-1.91764 2.64427,-0.70586"
       id="path7562-9" />
    <path
       style="fill:none;stroke:#000000;stroke-width:0.264583px;stroke-linecap:butt;stroke-linejoin:miter;stroke-opacity:1"
       d="m 136.52286,387.26567 c 3.54063,0.0269 7.08165,0.022 10.6219,0.0807 5.25885,0.0872 11.8522,0.44129 17.25497,0.24202 2.1633,-0.0798 4.31732,-0.32495 6.47623,-0.48402 0.39574,-0.0292 0.79224,-0.0478 1.18768,-0.0807 0.0903,-0.008 0.23209,-0.12315 0.2689,-0.0403 0.0359,0.0807 -0.14938,0.0941 -0.22408,0.14116"
       id="path7564-8" />
    <path
       style="fill:none;stroke:#000000;stroke-width:0.264583px;stroke-linecap:butt;stroke-linejoin:miter;stroke-opacity:1"
       d="m 167.11123,374.2979 c 0.2465,-0.93443 0.49301,-1.86886 0.73951,-2.80329 0.16433,-1.92937 0.0214,-3.91007 0.49299,-5.78811 2.18221,-8.68959 4.26353,-16.08236 14.78999,-14.92402 3.58015,0.39396 6.52768,6.51921 7.41741,8.43005 0.58773,1.26226 0.57853,2.72439 0.82912,4.09403 0.12039,0.65799 0.0873,1.33753 0.20169,1.99658 0.0142,0.0816 0.14684,0.29703 0.11204,0.22185 -0.25118,-0.54255 -0.17648,-0.38889 -0.493,-0.88737"
       id="path7566-4" />
    <path
       style="fill:none;stroke:#000000;stroke-width:0.264583px;stroke-linecap:butt;stroke-linejoin:miter;stroke-opacity:1"
       d="m 183.49227,363.5889 c -0.66481,-1.04872 -0.7869,-2.85687 -1.99442,-3.14615 -5.02013,-1.20263 -7.15614,7.13083 -3.67508,7.74436 5.01967,0.8847 7.77845,-5.89067 4.50422,-7.70402"
       id="path7568-8" />
    <path
       style="fill:none;stroke:#000000;stroke-width:0.264583px;stroke-linecap:butt;stroke-linejoin:miter;stroke-opacity:1"
       d="m 192.56795,365.76701 c 2.63281,0.70775 5.01986,1.10316 7.28293,2.84362 6.24527,4.80304 8.50859,10.93479 10.03926,18.41302 0.14966,0.73114 1.27778,4.71091 0.62746,3.67051"
       id="path7570-1" />
    <path
       style="fill:none;stroke:#000000;stroke-width:0.264583px;stroke-linecap:butt;stroke-linejoin:miter;stroke-opacity:1"
       d="m 172.10846,387.12453 c 0.49524,5.69455 -1.95856,12.165 1.63587,17.4046 0.60775,0.88593 1.41606,1.61803 2.17368,2.37977 0.22292,0.22414 0.91541,0.28836 0.76189,0.5647 -0.0857,0.15426 -0.29039,0.20729 -0.40336,0.34284"
       id="path7572-0" />
    <path
       style="fill:none;stroke:#000000;stroke-width:0.264583px;stroke-linecap:butt;stroke-linejoin:miter;stroke-opacity:1"
       d="m 152.47811,412.91885 c 11.15533,0.2485 -1.59917,-0.1395 20.41467,1.55291 5.71642,0.43947 11.45316,0.59753 17.16534,1.08905 19.37002,1.66678 27.93258,2.89583 47.46242,6.05027 3.32577,0.53718 6.64627,1.13115 9.92722,1.89576 1.98473,0.46254 0.67026,0.59188 0.44818,0.62519"
       id="path7574-3" />
    <path
       style="fill:none;stroke:#000000;stroke-width:0.264583px;stroke-linecap:butt;stroke-linejoin:miter;stroke-opacity:1"
       d="m 154.1812,403.19807 c 4.92699,1.58798 9.67872,1.87238 14.8124,2.01676 0.86349,0.0243 4.09741,-0.25406 4.30254,0.16134"
       id="path7576-0" />
    <path
       style="fill:none;stroke:#000000;stroke-width:0.264583px;stroke-linecap:butt;stroke-linejoin:miter;stroke-opacity:1"
       d="m 212.13105,409.53069 c 0.60505,-0.29579 1.14269,-0.85035 1.81515,-0.88737 1.84182,-0.10138 3.6781,0.29137 5.51262,0.48403 4.1192,0.43258 8.23273,0.91772 12.3474,1.39156 9.43886,1.08696 7.69539,0.67346 17.03091,2.86379 0.36427,0.0855 9.8472,2.90824 7.68629,1.27057"
       id="path7578-4" />
    <path
       style="fill:none;stroke:#000000;stroke-width:0.264583px;stroke-linecap:butt;stroke-linejoin:miter;stroke-opacity:1"
       d="m 203.54839,391.21852 c 1.34454,-0.77982 2.61487,-1.70461 4.03363,-2.33946 2.58957,-1.15874 5.26687,-2.11885 7.95521,-3.02513 1.78346,-0.60123 3.58478,-1.20912 5.44541,-1.4924 0.25689,-0.0391 0.66785,0.37442 0.51541,0.58486 -3.3545,4.63079 -9.51729,6.35693 -13.10931,10.68882 -0.56259,0.67847 1.7349,0.65546 2.59945,0.48403 1.98203,-0.39304 3.87292,-1.17023 5.84877,-1.59324 0.62433,-0.13366 1.88296,-0.43642 1.90477,0.20167 0.0643,1.88006 -5.4982,5.90462 -7.03644,7.099 -0.3617,0.28083 0.88376,-0.12232 1.00841,0.0403 0.40556,0.52925 -0.53522,1.26821 -1.03083,1.71425 -2.35512,2.11955 -4.89445,4.06171 -8.04485,4.55786"
       id="path7580-4" />
    <g
       id="fromage">
      <path
         style="fill:none;stroke:#000000;stroke-width:0.264583px;stroke-linecap:butt;stroke-linejoin:miter;stroke-opacity:1"
         d="m 154.56227,384.11951 c -4.63672,-0.84193 -9.2801,1.23744 -12.70594,4.33603 -3.52221,3.18577 -1.31021,7.98297 3.07004,8.20823 4.55036,0.234 8.74552,-1.59449 12.23534,-4.39655 1.5931,-1.27913 4.60556,-4.59164 2.39778,-6.73597 -1.86447,-1.81088 -9.0571,-2.04296 -10.86841,-0.14117"
         id="path7582-4" />
      <path
         style="fill:none;stroke:#000000;stroke-width:0.264583px;stroke-linecap:butt;stroke-linejoin:miter;stroke-opacity:1"
         d="m 141.00479,394.68734 c 0.5582,1.81459 1.32379,3.89374 2.77871,5.20325"
         id="path7584-7" />
      <path
         style="fill:none;stroke:#000000;stroke-width:0.264583px;stroke-linecap:butt;stroke-linejoin:miter;stroke-opacity:1"
         d="m 143.7835,399.89059 c 2.35337,1.14723 1.68342,1.19332 4.14569,1.08904 3.69197,-0.15636 7.28527,-1.17714 10.21853,-3.44865 0.97085,-0.75183 2.83486,-2.20857 3.54064,-3.26716 0.29566,-0.44346 1.09572,-2.00242 -0.0224,-1.27055"
         id="path7586-6" />
      <path
         style="fill:none;stroke:#000000;stroke-width:0.264583px;stroke-linecap:butt;stroke-linejoin:miter;stroke-opacity:1"
         d="m 160.3214,388.39506 c 0.94957,1.28575 1.45819,2.78656 2.12885,4.21502 0.12047,0.25658 0.5441,0.87469 0.26892,0.80671 -0.36735,-0.0908 -0.70214,-0.28235 -1.05321,-0.42352"
         id="path7588-3" />
    </g>
    <text
       xml:space="preserve"
       style="font-style:normal;font-weight:normal;font-size:10.5833px;line-height:1.25;font-family:sans-serif;fill:#000000;fill-opacity:1;stroke:none;stroke-width:0.264583"
       x="48.243164"
       y="155.49544"
       id="text11650"><tspan
         sodipodi:role="line"
         id="tspan11648"
         style="stroke-width:0.264583"
         x="48.243164"
         y="155.49544">Maître renard, par l’odeur alléché,</tspan><tspan
         sodipodi:role="line"
         style="stroke-width:0.264583"
         x="48.243164"
         y="168.72456"
         id="tspan11652">Lui tint à peu près ce langage :</tspan><tspan
         sodipodi:role="line"
         style="stroke-width:0.264583"
         x="48.243164"
         y="181.95369"
         id="tspan11662" /><tspan
         sodipodi:role="line"
         style="stroke-width:0.264583"
         x="48.243164"
         y="195.18282"
         id="tspan11680" /></text>
    <text
       xml:space="preserve"
       style="font-style:normal;font-weight:normal;font-size:10.5833px;line-height:1.25;font-family:sans-serif;fill:#000000;fill-opacity:1;stroke:none;stroke-width:0.264583"
       x="46.325016"
       y="302.48383"
       id="text42266"><tspan
         sodipodi:role="line"
         id="tspan42264"
         style="stroke-width:0.264583"
         x="46.325016"
         y="302.48383">À ces mots, le corbeau ne se sent pas de joie ;</tspan><tspan
         sodipodi:role="line"
         style="stroke-width:0.264583"
         x="46.325016"
         y="315.71295"
         id="tspan42268">Et pour montrer sa belle voix,</tspan><tspan
         sodipodi:role="line"
         style="stroke-width:0.264583"
         x="46.325016"
         y="328.94208"
         id="tspan42270">Il ouvre un large bec, laisse tomber sa proie.</tspan><tspan
         sodipodi:role="line"
         style="stroke-width:0.264583"
         x="46.325016"
         y="342.1712"
         id="tspan42282" /></text>
    <text
       xml:space="preserve"
       transform="matrix(0.26458333,0,0,0.26458333,43.137928,19.748974)"
       id="text45530"
       style="font-style:normal;font-weight:normal;font-size:40px;line-height:1.25;font-family:sans-serif;white-space:pre;shape-inside:url(#rect45532);fill:#000000;fill-opacity:1;stroke:none" />
    <text
       xml:space="preserve"
       style="font-style:normal;font-weight:normal;font-size:10.5833px;line-height:1.25;font-family:sans-serif;fill:#000000;fill-opacity:1;stroke:none;stroke-width:0.264583"
       x="184.84207"
       y="700.97833"
       id="text56280"><tspan
         sodipodi:role="line"
         style="font-style:normal;font-variant:normal;font-weight:normal;font-stretch:normal;font-size:6.35px;font-family:sans-serif;-inkscape-font-specification:'sans-serif, Normal';font-variant-ligatures:normal;font-variant-caps:normal;font-variant-numeric:normal;font-variant-east-asian:normal;stroke-width:0.264583"
         x="184.84207"
         y="700.97833"
         id="tspan56290" /></text>
    <path
       style="fill:none;stroke:#000000;stroke-width:0.264583px;stroke-linecap:butt;stroke-linejoin:miter;stroke-opacity:1"
       d="m 32.135422,207.76568 c 5.146715,-1.05374 10.098947,-0.0259 14.84421,2.26634 2.775405,1.34066 7.262362,4.78812 9.410165,6.85862 12.348074,11.9036 8.801735,28.76607 5.665981,43.77594 -0.905039,4.33213 -1.037056,4.5483 -2.021197,8.37945 -0.592675,2.30722 -0.775989,3.32012 -0.894628,2.98201 -0.132503,-0.37763 -0.198808,-0.77532 -0.298212,-1.16298"
       id="path72305" />
    <path
       style="fill:none;stroke:#000000;stroke-width:0.264583px;stroke-linecap:butt;stroke-linejoin:miter;stroke-opacity:1"
       d="m 33.792142,210.03202 c 3.588428,4.15174 7.464899,7.89579 10.371066,12.61391 2.243741,3.64267 3.538183,8.07419 4.903888,12.04733 2.950636,8.58407 4.306393,16.76062 1.358514,25.61549 -1.46639,4.40475 -7.729958,17.93628 -7.42211,22.42472 0.06634,0.96728 0.664014,2.07811 1.060302,2.86274 3.330659,6.59454 9.199419,4.44366 14.545998,1.81903 1.194292,-0.58628 3.056546,-1.34463 3.214036,-2.83291"
       id="path72307" />
    <path
       style="fill:none;stroke:#000000;stroke-width:0.264583px;stroke-linecap:butt;stroke-linejoin:miter;stroke-opacity:1"
       d="m 58.841741,270.86506 c 0.916718,-0.18886 2.016803,0.015 2.750156,-0.56658 0.622475,-0.49366 1.798638,-7.46843 2.153735,-8.55836 3.633499,-11.15262 10.908906,-19.90428 19.317351,-27.91164 2.062183,-1.96381 3.52436,-3.06644 5.66598,-4.5923 1.385723,-0.9873 2.523544,-1.64353 2.584483,-1.3419 0.116899,0.57861 -0.307916,1.14054 -0.49702,1.69973"
       id="path72309" />
    <path
       style="fill:none;stroke:#000000;stroke-width:0.264583px;stroke-linecap:butt;stroke-linejoin:miter;stroke-opacity:1"
       d="m 61.823836,284.58233 c 1.965973,0.66597 3.863888,1.58406 5.897922,1.99793 1.81062,0.36841 3.686166,0.28772 5.533446,0.32802 9.283664,0.20255 15.728954,-2.21597 23.790495,-6.38149 1.180039,-0.60975 2.360736,-1.21827 3.545371,-1.81903 1.15524,-0.58586 1.74603,-0.19868 1.62358,-1.52083"
       id="path72311" />
    <path
       style="fill:none;stroke:#000000;stroke-width:0.264583px;stroke-linecap:butt;stroke-linejoin:miter;stroke-opacity:1"
       d="m 90.816426,229.59401 c 0.949854,-1.45125 2.234545,-2.73198 2.849563,-4.35374 0.521013,-1.37387 0.351854,-2.91849 0.463881,-4.38355 0.241474,-3.15796 0.344679,-6.32564 0.596415,-9.4828 0.183687,-2.30373 0.911306,-6.21775 1.192841,-8.28999 0.195468,-1.43875 0.230772,-2.90555 0.331346,-4.35374 0.07548,-1.08679 0.05377,-1.75723 0.0994,-1.69975 2.254656,2.84081 4.531468,8.25409 6.660018,11.65967 0.13074,0.20918 1.38969,2.23038 1.42478,2.20669 1.29528,-0.87435 7.32457,1.80695 7.4221,0.95424 0.16702,-1.46014 -0.24498,-12.54532 1.35852,-11.74913 2.74531,1.36315 3.68701,11.05177 5.53344,14.2242 0.80626,0.63616 1.46688,1.52297 2.4188,1.90849 0.48989,0.1984 1.04885,-0.15395 1.55732,-0.2982 3.96161,-1.12385 6.1855,-4.43336 9.07882,-7.03754 0.23869,-0.21484 -0.10933,0.63394 -0.13253,0.95423 -0.0688,0.94944 -0.29978,1.8677 -0.46388,2.80309 -0.25022,1.42623 -0.67232,2.86795 -1.15971,4.23446 -2.23981,6.27993 -7.68613,11.17705 -12.4254,15.65557 -0.41288,0.39017 -3.90441,2.74657 -3.97613,2.86274 -0.98714,1.59903 -0.58657,6.98906 -0.89462,8.94602 -0.82458,5.2383 -1.89009,10.47756 -3.2803,15.59593 -1.12587,4.1451 -3.39397,7.77746 -5.03644,11.71931 -0.54077,1.29784 -1.22597,3.23269 -1.22597,4.65194 0,0.47941 -0.48373,1.59834 -0.69582,2.02778 -0.0342,0.0693 -0.25389,0.51699 -0.26508,0.50693 -0.10889,-0.098 0.13907,-1.33784 -0.0331,-1.66993"
       id="path72313" />
    <path
       style="fill:none;stroke:#000000;stroke-width:0.264583px;stroke-linecap:butt;stroke-linejoin:miter;stroke-opacity:1"
       d="m 99.232569,223.86855 c -1.538703,-1.67633 0.450365,-6.30034 2.882691,-5.30798 1.46646,0.59829 1.38784,2.90431 2.84955,2.80309"
       id="path72317" />
    <path
       style="fill:none;stroke:#000000;stroke-width:0.264583px;stroke-linecap:butt;stroke-linejoin:miter;stroke-opacity:1"
       d="m 110.69706,222.70556 c -2.70181,-3.33018 -0.39981,-7.57694 3.54539,-4.80103 0.19108,0.13444 1.18327,1.48301 1.65671,1.87866"
       id="path72319" />
    <path
       style="fill:none;stroke:#000000;stroke-width:0.264583px;stroke-linecap:butt;stroke-linejoin:miter;stroke-opacity:1"
       d="m 108.51019,229.50455 c 3.12569,1.64908 6.99458,1.01617 10.33794,0.23856 1.05964,-0.24645 1.94426,-1.1765 2.81642,-1.69974"
       id="path72321" />
    <g
       id="renardblabla">
      <text
         xml:space="preserve"
         style="font-style:normal;font-variant:normal;font-weight:normal;font-stretch:normal;font-size:6.35px;line-height:1.25;font-family:sans-serif;-inkscape-font-specification:'sans-serif, Normal';font-variant-ligatures:normal;font-variant-caps:normal;font-variant-numeric:normal;font-variant-east-asian:normal;fill:#000000;fill-opacity:1;stroke:none;stroke-width:0.264583"
         x="149.07355"
         y="207.99985"
         id="text70283"><tspan
           sodipodi:role="line"
           id="tspan70281"
           style="font-style:normal;font-variant:normal;font-weight:normal;font-stretch:normal;font-size:6.35px;font-family:sans-serif;-inkscape-font-specification:'sans-serif, Normal';font-variant-ligatures:normal;font-variant-caps:normal;font-variant-numeric:normal;font-variant-east-asian:normal;stroke-width:0.264583"
           x="149.07355"
           y="207.99985">« Hé ! bonjour, Monsieur du Corbeau.</tspan><tspan
           sodipodi:role="line"
           style="font-style:normal;font-variant:normal;font-weight:normal;font-stretch:normal;font-size:6.35px;font-family:sans-serif;-inkscape-font-specification:'sans-serif, Normal';font-variant-ligatures:normal;font-variant-caps:normal;font-variant-numeric:normal;font-variant-east-asian:normal;stroke-width:0.264583"
           x="149.07355"
           y="215.93735"
           id="tspan70285">Que vous êtes joli ! que vous me semblez beau !</tspan><tspan
           sodipodi:role="line"
           style="font-style:normal;font-variant:normal;font-weight:normal;font-stretch:normal;font-size:6.35px;font-family:sans-serif;-inkscape-font-specification:'sans-serif, Normal';font-variant-ligatures:normal;font-variant-caps:normal;font-variant-numeric:normal;font-variant-east-asian:normal;stroke-width:0.264583"
           x="149.07355"
           y="223.87485"
           id="tspan70287">Sans mentir, si votre ramage</tspan><tspan
           sodipodi:role="line"
           style="font-style:normal;font-variant:normal;font-weight:normal;font-stretch:normal;font-size:6.35px;font-family:sans-serif;-inkscape-font-specification:'sans-serif, Normal';font-variant-ligatures:normal;font-variant-caps:normal;font-variant-numeric:normal;font-variant-east-asian:normal;stroke-width:0.264583"
           x="149.07355"
           y="231.81235"
           id="tspan70289">Se rapporte à votre plumage,</tspan><tspan
           sodipodi:role="line"
           style="font-style:normal;font-variant:normal;font-weight:normal;font-stretch:normal;font-size:6.35px;font-family:sans-serif;-inkscape-font-specification:'sans-serif, Normal';font-variant-ligatures:normal;font-variant-caps:normal;font-variant-numeric:normal;font-variant-east-asian:normal;stroke-width:0.264583"
           x="149.07355"
           y="239.74985"
           id="tspan70291">Vous êtes le phénix des hôtes de ces bois. »</tspan></text>
      <path
         style="fill:none;stroke:#000000;stroke-width:0.264583px;stroke-linecap:butt;stroke-linejoin:miter;stroke-opacity:1"
         d="m 133.49352,207.10964 c -1.18179,0.0696 -2.41709,-0.14965 -3.54537,0.20873 -1.93903,0.61591 -3.21918,4.06384 -1.32538,5.48692 0.66419,0.49909 1.62601,0.35744 2.45194,0.44729 1.18513,0.12893 4.04592,-2.51892 3.7442,-3.87662 -0.21807,-0.98127 -2.491,-4.08752 -3.51226,-4.26427 -3.10989,-0.53824 -5.54127,7.17432 -2.28626,9.15478 2.85767,1.73871 8.32654,-1.77943 6.42806,-5.24835 -2.37622,-4.34185 -8.81243,-0.81915 -7.12388,3.33986 1.55436,3.8285 9.14768,-2.1731 5.16895,-5.24834 -1.82742,-1.41244 -7.15145,3.61399 -4.24119,5.45709 1.87719,1.18884 5.58392,-1.86631 3.67791,-3.48896 -1.84242,-1.56853 -5.02036,1.26618 -3.04836,2.95219 1.77301,1.51587 3.9966,-1.35534 2.18687,-2.47507 -1.45528,-0.90043 -2.69513,1.95801 -1.55732,2.98201 1.61716,1.45539 3.8776,-2.13637 2.15374,-2.74345 -1.13922,-0.40118 -1.08079,1.21927 -0.72897,1.78921 0.10232,0.16575 0.99928,0.56322 1.15972,0.65604"
         id="path72315" />
      <path
         style="fill:none;stroke:#000000;stroke-width:0.264583px;stroke-linecap:butt;stroke-linejoin:miter;stroke-opacity:1"
         d="m 141.5783,223.71944 c 0.22573,-0.18057 0.91159,-0.53299 0.62957,-0.59639 -1.8744,-0.42166 -9.57343,4.57663 -12.16033,4.77121 3.82334,1.92213 8.08561,2.30018 12.1272,3.63805 0.64484,0.21346 2.31793,1.04109 1.98806,0.44732"
         id="path92942" />
      <path
         style="fill:none;stroke:#000000;stroke-width:0.264583px;stroke-linecap:butt;stroke-linejoin:miter;stroke-opacity:1"
         d="m 144.1628,231.97963 c 0.52712,5.37552 1.5246,14.51313 5.33462,18.6674 3.58316,3.90689 10.75681,2.38288 15.34124,3.19074 5.55694,0.97922 11.17831,1.44519 16.76599,2.23651 3.31156,0.46898 6.59225,1.15337 9.9072,1.6103 5.16028,0.71127 10.42173,0.96396 15.60628,1.5208 13.43438,1.44291 27.39386,2.5877 40.88785,1.25247 8.90589,-0.88124 17.65034,-1.21493 26.34184,-3.54862 4.84714,-1.30147 9.08892,-3.61591 13.48569,-5.93418 3.06659,-1.61691 6.45209,-2.72177 9.17823,-4.92032 6.89648,-5.56183 8.78011,-10.07553 11.86211,-18.01138 1.17282,-3.01992 2.07412,-5.73084 2.58448,-8.94602 0.39537,-2.49072 1.26894,-5.00495 1.49106,-7.51468 0.0966,-1.09188 -0.23596,-2.09539 -0.53015,-3.13111 -1.43407,-5.04854 -3.54629,-9.05765 -7.6872,-12.37535 -3.63855,-2.91522 -8.01357,-3.29321 -12.32598,-4.56248 -3.953,-1.16348 -7.87602,-2.34807 -11.96151,-2.98201 -4.879,-0.75707 -9.84172,-0.98672 -14.71168,-1.78921 -11.0454,-1.8201 -21.99751,-3.71534 -33.16751,-4.65194 -3.16719,-0.26556 -6.32372,-0.67197 -9.50958,-0.65603 -2.65379,0.0133 -5.59482,0.32681 -8.18419,0.50694 -9.18768,0.63912 -18.35886,1.25471 -27.53469,2.05758 -7.24347,0.6338 -14.33783,2.92949 -21.27228,5.00978 -9.6541,2.89617 -18.87215,5.08065 -22.86271,15.47665 -1.49755,3.90133 0.21228,8.00923 0.76207,11.86841 0.25392,1.78233 0.40184,3.95734 -0.3976,5.636 -0.71966,1.51115 -3.34543,0.12222 -1.98808,1.72956"
         id="path92944" />
    </g>
    <rect
       style="fill:#ff0000;stroke-width:0.291688"
       id="rect93180"
       width="18.88662"
       height="42.059822"
       x="-3.7944121"
       y="142.32349"
       onload="follow(&quot;corbeau0&quot;)" />
    <rect
       style="fill:#ff0000;stroke-width:0.918285"
       id="rect93180-5"
       width="18.88662"
       height="416.85568"
       x="1.8210583"
       y="382.59879"
       onload="follow(&quot;fromage&quot;)" />
    <text
       xml:space="preserve"
       style="font-style:normal;font-weight:normal;font-size:10.5833px;line-height:1.25;font-family:sans-serif;fill:#000000;fill-opacity:1;stroke:none;stroke-width:0.264583"
       x="166.27074"
       y="666.18372"
       id="text103914"><tspan
         sodipodi:role="line"
         id="tspan103912"
         style="stroke-width:0.264583"
         x="166.27074"
         y="666.18372">Le renard s’en saisit, et dit :</tspan></text>
    <g
       id="renard">
      <path
         style="fill:none;stroke:#000000;stroke-width:0.264583px;stroke-linecap:butt;stroke-linejoin:miter;stroke-opacity:1"
         d="m 36.371687,591.23075 c 5.146715,-1.05374 10.098947,-0.0259 14.844207,2.26634 2.77541,1.34066 7.26237,4.78812 9.41017,6.85862 12.34807,11.9036 8.80173,28.76607 5.66598,43.77594 -0.90504,4.33213 -1.03706,4.5483 -2.0212,8.37945 -0.59267,2.30722 -0.77599,3.32012 -0.89463,2.98201 -0.1325,-0.37763 -0.1988,-0.77532 -0.29821,-1.16298"
         id="path72305-6" />
      <path
         style="fill:none;stroke:#000000;stroke-width:0.264583px;stroke-linecap:butt;stroke-linejoin:miter;stroke-opacity:1"
         d="m 38.028407,593.49709 c 3.588428,4.15174 7.464899,7.89579 10.371067,12.61391 2.24374,3.64267 3.53818,8.07419 4.90389,12.04733 2.95063,8.58407 4.30639,16.76062 1.35851,25.61549 -1.46639,4.40475 -7.729957,17.93628 -7.422109,22.42472 0.06634,0.96728 0.664019,2.07811 1.060299,2.86274 3.33066,6.59454 9.19942,4.44366 14.546,1.81903 1.19429,-0.58628 3.05655,-1.34463 3.21404,-2.83291"
         id="path72307-2" />
      <path
         style="fill:none;stroke:#000000;stroke-width:0.264583px;stroke-linecap:butt;stroke-linejoin:miter;stroke-opacity:1"
         d="m 63.078004,654.33013 c 0.91672,-0.18886 2.0168,0.015 2.75016,-0.56658 0.62247,-0.49366 1.79864,-7.46843 2.15373,-8.55836 3.6335,-11.15262 10.90891,-19.90428 19.317347,-27.91164 2.06219,-1.96381 3.52436,-3.06644 5.66598,-4.5923 1.38573,-0.9873 2.52355,-1.64353 2.58449,-1.3419 0.1169,0.57861 -0.30792,1.14054 -0.49702,1.69973"
         id="path72309-1" />
      <path
         style="fill:none;stroke:#000000;stroke-width:0.264583px;stroke-linecap:butt;stroke-linejoin:miter;stroke-opacity:1"
         d="m 66.060104,668.0474 c 1.96597,0.66597 3.86389,1.58406 5.89792,1.99793 1.81062,0.36841 3.68616,0.28772 5.53344,0.32802 9.283667,0.20255 15.728957,-2.21597 23.790496,-6.38149 1.18004,-0.60975 2.36074,-1.21827 3.54537,-1.81903 1.15524,-0.58586 1.74603,-0.19868 1.62358,-1.52083"
         id="path72311-7" />
      <path
         style="fill:none;stroke:#000000;stroke-width:0.264583px;stroke-linecap:butt;stroke-linejoin:miter;stroke-opacity:1"
         d="m 95.052691,613.05908 c 0.94985,-1.45125 2.23454,-2.73198 2.84956,-4.35374 0.52101,-1.37387 0.35185,-2.91849 0.46388,-4.38355 0.24147,-3.15796 0.34468,-6.32564 0.59642,-9.4828 0.18368,-2.30373 0.9113,-6.21775 1.192839,-8.28999 0.19546,-1.43875 0.23077,-2.90555 0.33134,-4.35374 0.0755,-1.08679 0.0538,-1.75723 0.0994,-1.69975 2.25466,2.84081 4.53147,8.25409 6.66002,11.65967 0.13074,0.20918 1.38969,2.23038 1.42478,2.20669 1.29528,-0.87435 7.32457,1.80695 7.4221,0.95424 0.16702,-1.46014 -0.24498,-12.54532 1.35852,-11.74913 2.74531,1.36315 3.68701,11.05177 5.53344,14.2242 0.80626,0.63616 1.46688,1.52297 2.4188,1.90849 0.48989,0.1984 1.04885,-0.15395 1.55732,-0.2982 3.96161,-1.12385 6.1855,-4.43336 9.07882,-7.03754 0.23869,-0.21484 -0.10933,0.63394 -0.13253,0.95423 -0.0688,0.94944 -0.29978,1.8677 -0.46388,2.80309 -0.25022,1.42623 -0.67232,2.86795 -1.15971,4.23446 -2.23981,6.27993 -7.68613,11.17705 -12.4254,15.65557 -0.41288,0.39017 -3.90441,2.74657 -3.97613,2.86274 -0.98714,1.59903 -0.58657,6.98906 -0.89462,8.94602 -0.82458,5.2383 -1.89009,10.47756 -3.2803,15.59593 -1.12587,4.1451 -3.39397,7.77746 -5.03644,11.71931 -0.54077,1.29784 -1.22597,3.23269 -1.22597,4.65194 0,0.47941 -0.48373,1.59834 -0.69582,2.02778 -0.0342,0.0693 -0.25389,0.51699 -0.26508,0.50693 -0.10889,-0.098 0.13907,-1.33784 -0.0331,-1.66993"
         id="path72313-8" />
      <path
         style="fill:none;stroke:#000000;stroke-width:0.264583px;stroke-linecap:butt;stroke-linejoin:miter;stroke-opacity:1"
         d="m 103.46883,607.33362 c -1.5387,-1.67633 0.45037,-6.30034 2.88269,-5.30798 1.46646,0.59829 1.38784,2.90431 2.84955,2.80309"
         id="path72317-5" />
      <path
         style="fill:none;stroke:#000000;stroke-width:0.264583px;stroke-linecap:butt;stroke-linejoin:miter;stroke-opacity:1"
         d="m 114.93332,606.17063 c -2.70181,-3.33018 -0.39981,-7.57694 3.54539,-4.80103 0.19108,0.13444 1.18327,1.48301 1.65671,1.87866"
         id="path72319-7" />
      <path
         style="fill:none;stroke:#000000;stroke-width:0.264583px;stroke-linecap:butt;stroke-linejoin:miter;stroke-opacity:1"
         d="m 112.74645,612.96962 c 3.12569,1.64908 6.99458,1.01617 10.33794,0.23856 1.05964,-0.24645 1.94426,-1.1765 2.81642,-1.69974"
         id="path72321-4" />
      <path
         style="fill:none;stroke:#000000;stroke-width:0.264583px;stroke-linecap:butt;stroke-linejoin:miter;stroke-opacity:1"
         d="m 113.01673,638.347 c 1.38351,0.3289 1.57949,0.57837 2.92718,0.18814 1.9286,-0.55843 4.64327,-2.97699 6.75042,-2.12362 1.89165,0.7661 2.39051,3.93289 4.83878,3.62899 2.4007,-0.298 3.94044,-1.81787 6.03357,-2.82254 2.18578,-1.04916 2.46725,1.51878 4.331,1.34408 1.37783,-0.12917 2.27541,-1.56374 3.67391,-1.74728 1.02861,-0.13502 0.79498,0.43317 1.5532,0.67201 0.64581,0.20341 1.41852,-0.0772 2.06096,-0.16129 2.13256,-0.27916 2.77781,-0.16377 3.91284,-1.37094 1.79778,-1.91203 3.10554,-2.17741 5.70502,-2.17741 1.46777,0 3.11966,-0.61963 4.62969,-0.72581 0.36113,-0.0254 4.44558,-0.75731 4.33103,-0.2419"
         id="path107810" />
    </g>
    <g
       id="g151117"
       transform="translate(-25.929177)">
      <text
         xml:space="preserve"
         style="font-style:normal;font-weight:normal;font-size:10.5833px;line-height:1.25;font-family:sans-serif;fill:#000000;fill-opacity:1;stroke:none;stroke-width:0.264583"
         x="215.51022"
         y="705.50323"
         id="text145265"><tspan
           sodipodi:role="line"
           id="tspan145263"
           style="font-style:normal;font-variant:normal;font-weight:normal;font-stretch:normal;font-size:6.35px;font-family:sans-serif;-inkscape-font-specification:'sans-serif, Normal';font-variant-ligatures:normal;font-variant-caps:normal;font-variant-numeric:normal;font-variant-east-asian:normal;stroke-width:0.264583"
           x="215.51022"
           y="705.50323"> « Mon bon monsieur,</tspan><tspan
           sodipodi:role="line"
           style="font-style:normal;font-variant:normal;font-weight:normal;font-stretch:normal;font-size:6.35px;font-family:sans-serif;-inkscape-font-specification:'sans-serif, Normal';font-variant-ligatures:normal;font-variant-caps:normal;font-variant-numeric:normal;font-variant-east-asian:normal;stroke-width:0.264583"
           x="215.51022"
           y="718.73236"
           id="tspan145267">Apprenez que tout flatteur</tspan><tspan
           sodipodi:role="line"
           style="font-style:normal;font-variant:normal;font-weight:normal;font-stretch:normal;font-size:6.35px;font-family:sans-serif;-inkscape-font-specification:'sans-serif, Normal';font-variant-ligatures:normal;font-variant-caps:normal;font-variant-numeric:normal;font-variant-east-asian:normal;stroke-width:0.264583"
           x="215.51022"
           y="731.96149"
           id="tspan145269">Vit aux dépens de celui qui l’écoute.</tspan><tspan
           sodipodi:role="line"
           style="font-style:normal;font-variant:normal;font-weight:normal;font-stretch:normal;font-size:6.35px;font-family:sans-serif;-inkscape-font-specification:'sans-serif, Normal';font-variant-ligatures:normal;font-variant-caps:normal;font-variant-numeric:normal;font-variant-east-asian:normal;stroke-width:0.264583"
           x="215.51022"
           y="745.19061"
           id="tspan145271">Cette leçon vaut bien un fromage sans doute. »</tspan><tspan
           sodipodi:role="line"
           style="font-style:normal;font-variant:normal;font-weight:normal;font-stretch:normal;font-size:6.35px;font-family:sans-serif;-inkscape-font-specification:'sans-serif, Normal';font-variant-ligatures:normal;font-variant-caps:normal;font-variant-numeric:normal;font-variant-east-asian:normal;stroke-width:0.264583"
           x="215.51022"
           y="758.41974"
           id="tspan145275" /></text>
      <path
         style="fill:none;stroke:#000000;stroke-width:0.264583px;stroke-linecap:butt;stroke-linejoin:miter;stroke-opacity:1"
         d="m 167.89445,738.83926 c 6.04321,-2.99908 12.10301,-5.97051 18.22015,-8.81714 0.4283,-0.19931 3.54032,-1.9268 4.42062,-1.8548"
         id="path151024" />
      <path
         style="fill:none;stroke:#000000;stroke-width:0.264583px;stroke-linecap:butt;stroke-linejoin:miter;stroke-opacity:1"
         d="m 167.89445,738.83926 c 9.36642,2.48261 -1.4513,0.0349 12.03725,1.04836 3.07207,0.23082 6.09486,0.90358 9.13993,1.37096 3.59932,0.59987 1.19223,0.21463 3.88299,0.61825 0.30377,0.0456 1.15596,0.37881 0.89607,0.21506 -0.36231,-0.22826 -0.69833,-0.50784 -1.10515,-0.64516 2.38473,4.12562 2.13542,9.07213 3.43494,13.60202 1.24618,4.34397 4.32483,8.36245 6.63094,12.17731 0.86679,1.43389 3.40514,5.7302 4.12194,6.69347 4.32061,5.80627 10.30223,11.10332 16.72668,14.48908 9.05532,4.77227 22.19266,6.50887 32.2885,6.80102 10.16045,0.29401 20.47926,0.52208 30.61582,-0.32259 8.29531,-0.69125 16.55517,-2.61989 24.79134,-3.79027 9.02044,-1.28182 17.75695,-2.98762 26.61337,-5.13435 7.55109,-1.83034 14.9547,-3.49626 22.31221,-6.04832 10.0162,-3.47428 21.3689,-7.20201 28.16656,-15.88695 7.93237,-10.13469 4.42817,-24.52885 -0.77661,-35.05339 -5.95628,-12.04413 -14.14652,-23.65001 -26.31465,-30.08033 -4.95829,-2.62023 -10.71538,-4.36243 -16.03971,-5.96767 -9.96559,-3.00454 -22.83245,-5.01281 -33.1547,-5.83328 -5.9175,-0.47035 -11.844,-0.331 -17.7721,-0.4301 -8.42243,-0.1408 -16.81243,-0.4362 -25.23939,-0.45698 -4.92809,-0.0122 -9.85849,-0.46843 -14.78521,-0.40323 -8.46701,0.11206 -18.39652,2.60461 -26.6731,4.43544 -5.70632,1.26228 -12.36131,2.54917 -17.32407,5.83327 -2.32435,1.53814 -4.00692,3.95014 -5.85434,5.99456 -2.50372,2.77071 -4.85942,5.16589 -6.33225,8.70959 -1.50337,3.61721 -1.24512,8.05518 -1.37398,11.8816 -3.12331,3.59055 -8.48389,4.04404 -11.29051,7.93001"
         id="path151026" />
    </g>
    <rect
       style="fill:#ff0000;stroke-width:0.5803"
       id="rect93180-5-3"
       width="18.88662"
       height="166.46999"
       x="-34.277401"
       y="635.44519"
       onload="follow(&quot;renard&quot;)" />
    <path
       style="fill:none;stroke:#000000;stroke-width:0.264583px;stroke-linecap:butt;stroke-linejoin:miter;stroke-opacity:1"
       d="m 180.1586,1017.7045 c 1.26829,-6.7085 7.09683,-19.65348 15.11521,-19.91751 2.4859,-0.0819 5.63777,1.50271 7.73814,2.64641 2.02682,1.1036 5.16992,2.8985 6.39688,5.107 2.79813,5.0365 2.71066,13.9016 4.48812,18.0604"
       id="path152368" />
    <path
       style="fill:none;stroke:#000000;stroke-width:0.264583px;stroke-linecap:butt;stroke-linejoin:miter;stroke-opacity:1"
       d="m 201.51592,1012.226 c -4.94474,-1.8295 -4.08398,-2.2512 -9.28578,-1.3464 -7.71576,1.3421 -0.72424,12.4605 5.62304,12.6747 5.82397,0.1966 8.3093,-7.3299 3.66274,-11.3283 -0.95613,-0.8228 -2.5106,-0.2476 -3.7659,-0.3714"
       id="path152370" />
    <path
       style="fill:none;stroke:#000000;stroke-width:0.264583px;stroke-linecap:butt;stroke-linejoin:miter;stroke-opacity:1"
       d="m 180.1586,1017.7045 c 1.82976,3.7714 0.56461,4.6553 -0.7738,7.9855 -4.27796,10.6443 -8.57537,10.8253 -16.766,18.2925 -0.0282,0.026 -3.1984,2.7697 -3.1984,3.157 0,0.058 3.92657,-0.5329 4.12701,-0.5571 5.48184,-0.6618 10.70937,-0.8875 15.99216,-2.7392 0.28025,-0.098 6.88191,-2.0266 5.004,-1.3928"
       id="path152372" />
    <path
       style="fill:none;stroke:#000000;stroke-width:0.264583px;stroke-linecap:butt;stroke-linejoin:miter;stroke-opacity:1"
       d="m 165.24978,1042.4968 c 6.41316,1.5212 11.1721,-4.3454 17.07554,-4.8285"
       id="path152374" />
    <path
       style="fill:none;stroke:#000000;stroke-width:0.264583px;stroke-linecap:butt;stroke-linejoin:miter;stroke-opacity:1"
       d="m 195.42858,1029.3113 c -1.09045,3.816 -1.00461,7.8415 -2.06353,11.6534"
       id="path152376" />
    <path
       style="fill:none;stroke:#000000;stroke-width:0.264583px;stroke-linecap:butt;stroke-linejoin:miter;stroke-opacity:1"
       d="m 193.62301,1047.186 c -0.70242,2.6047 -1.22789,5.2652 -2.16668,7.7998"
       id="path152378" />
    <path
       style="fill:none;stroke:#000000;stroke-width:0.264583px;stroke-linecap:butt;stroke-linejoin:miter;stroke-opacity:1"
       d="m 190.32138,1068.3105 c -0.84492,3.4924 -0.27455,7.6794 -1.44445,11.1891"
       id="path152380" />
    <path
       style="fill:none;stroke:#000000;stroke-width:0.264583px;stroke-linecap:butt;stroke-linejoin:miter;stroke-opacity:1"
       d="m 184.54357,1042.4504 c 1.65081,2.1047 3.22181,4.2745 4.95243,6.3141 1.6788,1.9785 4.09659,2.996 5.72623,5.1071 2.49577,3.233 1.9672,9.1742 2.32145,12.8604 0.15656,1.6291 0.15816,8.1821 3.09525,7.5213"
       id="path152382" />
    <path
       style="fill:none;stroke:#000000;stroke-width:0.264583px;stroke-linecap:butt;stroke-linejoin:miter;stroke-opacity:1"
       d="m 213.89695,1023.6008 c 3.72176,8.2459 5.1881,28.6036 13.10326,33.1028 7.19254,-0.7397 4.08154,0.078 11.24612,-2.8785 2.68769,-1.1092 6.68247,-3.0733 6.75799,-2.9713 0.86317,1.1651 -11.69942,12.4539 -12.94852,13.7426 -0.72058,0.7433 -2.53332,1.3988 -2.06349,2.3213 0.63713,1.2511 12.95351,-4.4069 14.59929,-4.5035 0.84867,-0.05 -0.21122,1.7454 -0.67062,2.4607 -2.51437,3.9151 -5.86568,6.9408 -9.38897,9.9355 -2.25303,1.915 -3.56567,2.4607 -3.09525,2.4607 1.15515,0 6.62948,-1.5313 7.37703,-0.1857 1.85495,3.3387 -10.32869,13.303 -13.77391,14.2997 -0.26962,0.078 -0.10315,-0.555 -0.10315,-0.8357"
       id="path152384" />
    <path
       style="fill:none;stroke:#000000;stroke-width:0.264583px;stroke-linecap:butt;stroke-linejoin:miter;stroke-opacity:1"
       d="m 200.63893,1074.2533 c -1.83996,-0.6345 -3.62693,-1.451 -5.51989,-1.9035 -1.42953,-0.3418 -2.92844,-0.2669 -4.38493,-0.4643 -8.43189,-1.1432 -15.48913,-2.2111 -23.83353,-3.9928 -18.74555,-4.0026 -36.7201,-9.8289 -54.16702,-17.7818 -7.41301,-3.3791 -9.98613,-5.9763 -11.45246,3.6214"
       id="path152386" />
    <path
       style="fill:none;stroke:#000000;stroke-width:0.264583px;stroke-linecap:butt;stroke-linejoin:miter;stroke-opacity:1"
       d="m 114.69389,1077.6425 c 1.56482,0.1083 3.13483,0.1579 4.69447,0.325 6.87337,0.7364 14.25941,3.3487 20.94459,5.0141 13.20935,3.2908 26.51361,5.7561 39.82565,8.5892 3.84855,0.819 19.10161,5.7114 22.75019,5.5248 0.60914,-0.031 1.10054,-0.5261 1.6508,-0.7892 1.71959,1.5631 3.17539,3.4783 5.15878,4.6892 5.11754,3.1244 16.63964,3.6638 22.90488,5.2927 17.81606,4.6321 35.66551,9.4028 53.34165,14.5319 3.81389,1.1066 12.83106,4.1326 17.74618,4.5034 2.18979,0.1652 2.01191,-0.1214 2.01191,-1.1606"
       id="path152388" />
    <path
       style="fill:none;stroke:#000000;stroke-width:0.264583px;stroke-linecap:butt;stroke-linejoin:miter;stroke-opacity:1"
       d="m 238.45267,1081.4496 c 23.31238,5.821 46.28903,12.852 69.437,19.2674 1.9427,0.5384 15.55512,5.8693 16.86914,2.3214"
       id="path152390" />
    <text
       xml:space="preserve"
       style="font-style:normal;font-weight:normal;font-size:10.5833px;line-height:1.25;font-family:sans-serif;fill:#000000;fill-opacity:1;stroke:none;stroke-width:0.264583"
       x="39.626637"
       y="952.9361"
       id="text103914-3"><tspan
         sodipodi:role="line"
         id="tspan103912-8"
         style="stroke-width:0.264583"
         x="39.626637"
         y="952.9361">Le corbeau honteux et confus,</tspan><tspan
         sodipodi:role="line"
         style="stroke-width:0.264583"
         x="39.626637"
         y="966.16522"
         id="tspan157969">Jura, mais un peu tard, qu’on ne l’y prendrait plus. </tspan></text>
  </g>
</svg>
